<svg width="512" height="512" viewBox="0 0 512 512" fill="none" xmlns="http://www.w3.org/2000/svg">
<rect width="512" height="512" rx="24" fill="#8E1838"/>
<g clip-path="url(#clip0_54_911)">
<path d="M91.0001 351.535H418.14C418.723 351.605 418.474 354.257 417.069 353.794L91.0001 353.774L91.0001 351.535Z" fill="white"/>
<path d="M91.0001 317.205L418.145 317.195L418.364 318.852L91.0001 319.071V317.205Z" fill="white"/>
<path d="M360.128 384C359.246 383.109 357.637 383.05 357.891 381.388C360.736 383.438 363.506 382.149 365.599 379.766C368.05 376.97 365.793 376.925 365.43 375.144C365.275 374.397 365.953 373.308 365.729 372.432C367.532 372.646 367.731 374.736 367.592 376.164H372.819C373.172 375.099 371.757 374.203 371.777 373.432C371.782 373.213 372.51 370.969 372.634 370.935C373.357 370.731 373.172 371.278 373.377 371.666C374.144 373.109 374.478 374.507 374.308 376.159H380.656C379.565 373.855 376.177 374.303 375.514 371.77C374.592 368.223 379.221 366.954 381.772 366.083L381.608 369.462C381.075 370.218 377.996 369.765 378.419 370.74C380.995 373.303 383.706 375.437 382.893 379.517H368.15L364.976 383.995H360.123L360.128 384Z" fill="white"/>
<path d="M231.349 384C228.299 382.184 228.743 379.029 230.043 376.164C230.472 375.213 232.669 372.512 232.026 374.785C231.658 376.084 230.118 377.681 230.786 379.139C231.907 381.597 239.406 381.537 240.163 378.781C240.636 377.064 238.882 375.781 238.897 374.925C238.907 374.542 239.814 372.059 240.123 372.064C241.159 373.139 241.483 374.721 241.429 376.159C245.19 376.875 245.205 374.228 247.009 372.601C250.591 369.372 251.907 377.059 251.508 379.522C249.784 380.189 247.338 378.368 246.082 378.427C245.405 378.462 244.896 379.273 244.154 379.447C243.412 379.622 241.668 379.383 241.463 379.557C241.339 379.661 241.05 381.746 240.322 382.597C239.814 383.194 238.912 383.333 238.444 384H231.354H231.349Z" fill="white"/>
<path d="M329.894 384C326.845 382.184 327.288 379.029 328.588 376.164C329.017 375.213 331.214 372.512 330.571 374.785C330.203 376.084 328.663 377.681 329.331 379.139C330.452 381.597 337.951 381.537 338.708 378.781C339.181 377.064 337.427 375.781 337.442 374.925C337.452 374.542 338.359 372.059 338.668 372.064C339.704 373.139 340.028 374.721 339.974 376.159C344.358 377.084 343.945 372.581 347.233 371.661C349.027 371.82 350.731 377.965 349.889 379.169C348.952 380.507 345.689 378.373 344.627 378.422C343.95 378.457 343.441 379.268 342.699 379.442C341.957 379.617 340.213 379.378 340.008 379.552C339.884 379.656 339.595 381.741 338.867 382.592C338.359 383.189 337.457 383.328 336.989 383.995H329.899L329.894 384Z" fill="white"/>
<path d="M91 338.848L94.9113 327.648L97.851 327.335L103.691 343.883L100.362 344.037L98.9671 340.395L93.8201 340.326L92.8784 343.838L90.9901 344.077V338.853L91 338.848ZM98.4639 337.35C97.4923 335.674 97.5521 333.116 96.2267 331.758L94.732 337.35H98.4639Z" fill="white"/>
<path d="M198.504 384C197.771 383.03 195.963 382.975 196.267 381.388C199.291 382.711 200.298 382.895 202.953 380.796C207.602 377.114 202.973 376.791 204.483 372.432C205.449 371.721 206.61 375.492 206.346 376.164C208.589 376.258 210.273 375.174 210.078 372.8H211.194L211.249 375.736C212.52 376.318 214.876 376.502 215.888 375.437C216.605 374.681 216.311 373.422 217.358 372.81C218.544 373.462 217.193 374.706 217.702 375.432L219.411 375.785C218.728 374.517 218.753 372.561 220.527 372.432C220.417 372.8 220.905 373.218 220.905 373.362V379.522C219.635 380.015 217.841 378.895 216.984 378.925C216.546 378.94 216.032 379.472 215.474 379.502C213.626 379.607 210.98 380.139 210.268 378.029C209.769 379.666 206.521 379.388 206.366 379.542C206.306 379.602 206.326 380.632 206.003 381.229C205.425 382.298 204.368 382.985 203.731 384H198.504Z" fill="white"/>
<path d="M259.72 384C257.961 379.895 260.477 377.641 264.573 377.651L263.187 376.199L260.841 376.905C262.32 371.402 267.477 375.746 267.188 379.517C264.931 379.472 262.57 379.711 260.532 380.696L260.841 383.995H259.72V384Z" fill="white"/>
<path d="M273.716 225.782L280.801 215.687C281.279 214.368 280.447 213.458 280.771 211.955C281.299 209.537 283.496 209.303 284.254 207.587C285.893 203.89 285.534 196.885 289.386 194.059C291.174 192.745 291.563 192.83 293.486 191.068C293.985 190.611 295.121 190.382 295.37 189.964C295.694 189.421 295.544 187.964 295.803 187.038C296.511 184.521 299.44 181.321 301.324 179.495C302.091 178.754 305.569 176.276 305.833 175.774C306.287 174.913 305.235 173.321 306.366 171.47C307.642 169.385 309.944 169.321 311.065 168.331C312.256 167.276 312.231 163.524 314.926 163.793L315.061 135.383C315.609 131.602 318.967 127.905 322.973 128C324.508 128.035 329.037 130.139 330.392 131.06C332.744 132.652 333.77 135.105 334.014 137.886C334.752 146.394 333.392 155.912 334.049 164.529C338.982 165.112 341.987 166.634 345.185 170.376C346.625 172.057 347.522 174.142 348.758 175.769C351.448 179.296 352.844 179.829 354.807 184.64C355.973 187.501 356.8 192.82 357.891 194.894C358.105 195.302 359.784 196.347 360.437 197.298C361.588 198.964 362.156 202.039 363.322 203.368C363.89 204.014 365.011 204.407 365.723 205.069C369.122 208.209 368.085 211.234 370.382 214.219C374.896 220.08 380.013 217.836 385.519 220.732C388 222.035 389.251 224.035 391.289 225.787H402.3V228.026H217.911V225.787H273.716V225.782ZM332.131 163.838V137.901C332.131 135.458 329.69 131.95 327.049 131.756C324.891 131.597 321.309 134.383 321.309 136.408V163.833H332.136L332.131 163.838Z" fill="white"/>
<path d="M123.103 206.005L124.563 206.044L124.602 207.124C128.459 202.233 131.713 196.571 134.936 191.168C135.494 190.232 136.516 189.242 137.014 187.979C137.218 187.456 136.84 186.784 136.944 186.65C137.074 186.471 140.253 185.242 140.965 184.864C153.706 178.122 165.26 168.923 170.9 155.26C172.425 155.121 172.565 156.793 173.272 157.698C181.055 167.664 189.869 176.998 201.314 182.834C202.535 180.416 205.16 177.316 206.082 174.913C206.341 174.232 205.968 173.629 206.007 173.575C206.157 173.381 209.724 171.908 210.462 171.495C220.636 165.813 230.382 158.136 234.712 146.931L235.649 146.668C242.824 158.081 253.287 167.092 265.494 172.814L275.599 189.984L278.015 189.959V194.815L276.172 194.79L275.803 193.113L266.077 177.645L266.097 191.989C266.795 193.397 269.306 200.522 270.188 200.969C270.621 201.193 271.179 201.119 271.658 201.168L271.673 206.005L270.233 205.95L266.077 196.676L265.793 204.786L253.745 219.642L253.267 219.742C251.822 219.607 247.134 213.741 245.295 212.408C237.717 206.9 233.023 214.134 228.21 219.08C227.886 219.378 227.507 219.463 227.079 219.463C224.792 219.483 216.715 213.995 214 213.094L207.104 204.134C206.645 209.617 210.731 214.343 212.365 219.393L214.194 219.433V225.031L212.724 225.011C212.639 223.533 211.877 222.045 211.274 220.672C210.168 218.154 209.082 215.274 207.472 213.09V223.349C203.008 229.553 198.035 235.205 192.669 240.648L191.05 240.514C187.986 236.872 182.575 229.294 177.418 229.115C172.146 228.936 164.064 235.847 162.266 240.648C161.558 240.887 160.851 240.638 160.173 240.41C158.22 239.748 147.258 234.364 145.788 233.25C144.732 232.449 142.854 228.752 141.897 228.459L113.013 228.225L112.664 225.772L140.288 226.145C140.497 225.991 137.303 222.18 137.303 221.856V216.075C135.325 218.702 132.883 221.876 132.051 225.006L130.586 225.031V219.433C131.234 219.254 132.086 219.821 132.599 219.727C133.023 219.647 137.308 212.965 137.308 212.532V191.078L124.573 211.925L123.128 211.975V206.005H123.103ZM208.952 174.286L215.484 182.859C221.603 177.913 226.506 171.415 229.655 164.196C230.706 161.788 231.977 158.977 232.091 156.37C225.808 163.947 218.125 170.47 208.952 174.286ZM240.99 156.828C240.766 156.698 239.989 156.574 239.939 156.932C242.271 160.474 244.742 164.042 247.582 167.201C250.178 170.087 255.111 175.003 258.15 177.247C258.559 177.55 259.137 178.172 259.724 177.859C259.914 177.759 262.061 174.918 262.34 174.475C262.584 174.097 262.908 174.092 262.535 173.525C262.295 173.157 256.087 169.978 254.901 169.211C251.613 167.087 247.183 163.773 244.408 161.042C243.785 160.425 241.269 156.982 240.99 156.823V156.828ZM234.707 158.241C233.89 158.091 233.825 158.599 233.596 159.176C230.641 166.579 228.793 171.56 223.501 177.819C221.932 179.675 219.037 181.779 217.906 183.421C217.687 183.735 217.388 183.789 217.537 184.352L225.654 188.038C226.795 188.207 227.457 186.844 228.001 186.048C231.145 181.386 233.172 172.197 233.915 166.589C234.279 163.833 234.109 160.942 234.707 158.246V158.241ZM238.808 158.614L238.06 158.803C240.382 169.301 243.566 180.794 252.395 187.7L258.205 180.068C251.274 173.366 243.586 167.166 238.803 158.614H238.808ZM249.64 188.461C244.074 182.605 240.711 175.918 238.344 168.226C237.811 166.49 237.572 164.524 236.999 162.853C236.835 162.365 236.894 161.713 236.207 161.599C235.798 168.833 234.433 177.237 231.414 183.869C230.621 185.61 229.5 187.103 228.738 188.839L249.64 188.466V188.461ZM169.012 163.465L163.232 170.933C156.77 177.968 148.743 183.227 140.278 187.561L140.636 188.665L147.408 197.765C147.776 198.019 148.688 197.307 149.042 197.044C157.936 190.551 164.543 177.62 168.005 167.495C168.449 166.201 168.628 164.778 169.012 163.47V163.465ZM176.481 165.331C177.383 168.609 179.969 172.167 182.081 174.839C187.293 181.416 193.825 186.73 199.804 192.566C200.123 192.566 203.407 188.193 203.755 187.561C203.96 187.188 204.259 187.088 203.935 186.59C203.701 186.232 198.374 183.62 197.408 183.028C194.538 181.262 191.483 179.127 188.833 177.048C184.333 173.52 180.432 169.435 176.481 165.331ZM173.87 165.704C176.536 179.376 180.263 194.601 191.603 203.696L198.813 194.243C191.468 187.426 183.755 180.874 178.045 172.535L173.875 165.704H173.87ZM188.798 204.134C182.684 198.218 178.703 190.815 176.007 182.779L172.006 167.943C170.188 180.535 168.22 193.327 162.674 204.88L188.803 204.134H188.798ZM149.605 199.283L160.427 203.98C163.81 198.83 165.579 192.188 166.894 186.158C167.712 182.396 168.663 177.794 168.922 173.993C168.972 173.281 169.221 172.928 168.454 172.425C164.368 182.854 158.125 192.009 149.605 199.283ZM263.825 186.974V175.779L261.184 179.296C260.337 180.859 261.902 183.376 262.639 184.988C262.898 185.556 263.257 186.78 263.825 186.979V186.974ZM208.578 177.271V191.451L213.427 183.794L208.578 177.271ZM206.715 177.645C205.818 177.446 206.112 177.804 205.883 178.132C205.38 178.859 202.968 182.904 202.978 183.451C202.993 184.352 205.843 185.322 206.715 185.481V177.645ZM258.972 209.92V182.496L253.576 189.601L253.352 190.869L253.75 216.08L258.972 209.925V209.92ZM260.836 184.735V207.497L263.621 204.124C264.069 199.9 263.73 195.556 263.8 191.287L260.841 184.735H260.836ZM225.748 216.826V190.516C222.679 188.979 219.216 186.894 216.072 185.635C215.768 185.511 215.275 185.272 215.29 185.67L215.654 211.721L225.748 216.821V216.826ZM213.432 208.99V187.347L208.753 194.427C208.369 195.889 208.364 201.556 208.922 202.865L213.432 208.995V208.99ZM205.22 203.392V190.894C205.22 190.69 204.672 190.073 204.842 189.591C204.627 189.362 201.174 193.84 201.458 194.636L205.22 203.397V203.392ZM139.151 190.332V209.363C141.688 206.109 143.875 202.462 145.798 198.785C145.753 198.278 140.796 191.82 140.008 190.8C139.769 190.486 140.018 190.123 139.151 190.327V190.332ZM227.991 190.705V203.766C231.219 201.696 237.891 194.76 238.08 190.899C238.12 190.108 238.065 190.417 237.522 190.332C235.001 189.939 230.806 191.312 227.991 190.705ZM251.508 190.332H241.055C242.495 194.203 244.946 198.412 248.07 201.134C248.967 201.915 250.382 202.974 251.503 203.392V190.332H251.508ZM199.62 230.817V196.676L192.903 205.442V237.723L199.62 230.817ZM201.488 228.394C202.575 227.19 204.941 224.508 205.2 222.966C205.923 218.632 204.687 212.577 205.24 208.039L201.488 199.661V228.394ZM147.736 200.407V232.125L160.048 238.096L160.452 206.92L160.193 206.338L147.731 200.407H147.736ZM145.873 229.513V202.273C144.109 205.044 139.515 210.532 139.151 213.652C138.304 220.99 140.507 223.782 145.016 229.036C145.245 229.304 144.996 229.737 145.873 229.508V229.513ZM173.307 206.751C169.66 206.95 165.948 206.607 162.295 206.751V223.17C166.157 220.871 169.396 217.642 171.862 213.891C172.749 212.547 175.155 208.338 175.365 206.935C175.559 205.636 173.636 206.736 173.307 206.751ZM191.035 206.378H177.971C180.841 212.756 184.587 219.14 191.035 222.423V206.378ZM227.991 216.08C230.233 213.786 231.583 212.995 229.924 209.855C229.56 209.169 228.882 207.791 227.991 207.87V216.08ZM251.877 215.702L251.14 208.243C249.391 211.796 248.494 211.955 251.025 215.234C251.264 215.547 251.02 215.916 251.877 215.702ZM162.3 236.976C163.192 236.305 165.963 233.215 166.003 232.324C166.047 231.309 164.104 227.354 163.227 226.906C162.38 226.752 162.714 227.274 162.674 227.832C162.455 230.827 162.56 233.971 162.305 236.981L162.3 236.976ZM191.035 226.901C189.376 227.17 187.652 230.434 187.662 231.946C187.672 233.459 190.018 235.822 191.035 236.976V226.901Z" fill="white"/>
<path d="M398.2 280.263C398.19 277.735 398.085 275.128 397.821 272.615C397.472 269.292 396.8 262.968 395.923 259.963C395.494 258.495 393.96 257.545 393.77 256.858C393.506 255.908 396.551 249.42 397.258 248.166C397.427 247.863 398.414 245.703 398.942 246.305C398.828 251.579 404.049 253.689 407.497 256.604C407.751 257.679 402.779 263.461 402.38 265.227C401.518 269.043 403.342 275.063 403.043 279.322C402.928 280.969 401.588 288.696 400.826 289.691C400.656 289.91 400.068 290.338 399.874 290.338H373.187V281.755C369.59 282.462 367.268 289.726 364.328 290.248C359.132 291.169 351.952 290.86 346.501 291.089C345.783 291.119 345.066 291.442 344.274 291.472C340.696 291.626 337.079 291.338 333.496 291.442L331.543 295.582C329.829 295.861 320.372 286.87 318.12 286.606C317.313 286.512 317.692 286.711 317.532 287.129C316.879 288.87 317.198 291.159 314.787 291.477C309.216 292.209 301.942 290.96 296.182 291.378C293.97 290.577 293.202 288.164 292.37 286.228C291.852 286.228 290.641 291.417 289.386 291.457C281.508 290.97 272.888 292.104 265.106 291.472C263.855 291.373 262.983 290.925 261.802 290.681C259.724 294.721 256.321 304.607 250.92 304.906C247.687 305.085 240.915 301.229 238.424 299.109C238.1 298.831 235.768 296.681 236.192 296.308C239.141 296.517 239.859 299.572 243.382 298.836C246.541 298.174 255.883 291.427 257.298 288.492C258.713 285.556 254.827 281.656 253.745 278.964L257.094 271.312C257.756 271.168 257.831 271.506 258.15 271.929C260.337 274.819 261.588 280.735 265.654 281.591L291.179 281.77C292.266 281.516 291.394 274.456 292.634 273.073L297.024 266.834C297.572 270.615 296.217 274.954 296.645 278.596C296.874 280.521 298.304 281.541 300.193 281.77C303.556 282.173 313.287 282.183 316.645 281.78C317.099 281.725 317.393 281.77 317.756 281.397C318.175 280.969 319.57 277.163 320.248 276.048C321.812 273.466 325.101 269.909 328.23 269.481C333.053 268.814 331.379 270.894 332.285 274.312C332.639 275.645 334.896 280.377 335.833 281.213C336.252 281.581 336.536 281.85 337.148 281.795C345.32 280.641 353.616 281.173 361.802 280.656C365.335 280.432 368.369 280.183 370.756 277.292C371.139 276.844 370.915 276.675 370.552 276.357C369.984 275.859 363.775 273.675 362.863 273.576C360.198 273.287 357.652 274.984 356.002 276.909C357.632 269.401 358.19 262.077 367.941 264.411C371.105 265.167 378.653 269.446 380.821 269.446H388.1L385.131 277.486L380.432 278.387L376.899 280.268H398.175L398.2 280.263ZM328.02 281.75C328.693 277.929 327.089 276.775 323.546 278.397L328.02 281.75Z" fill="white"/>
<path d="M183.571 281.755H192.903C192.714 275.919 192.221 269.098 190.935 263.386C190.417 261.077 189.759 260.634 188.434 258.813C189.899 255.435 190.93 251.689 193.471 248.917C194.313 248.564 194.014 250.858 194.204 251.539C195.011 254.48 199.998 256.948 202.206 258.843C202.5 260.072 197.383 265.485 197.029 267.406C196.366 270.978 197.906 276.934 197.776 280.84C197.721 282.546 196.426 290.139 195.34 291.089C195.111 291.288 194.921 291.467 194.592 291.462L179.296 291.452C177.522 291.114 177.951 289.074 177.702 287.805C177.627 287.422 177.786 286.875 177.238 286.984L175.18 291.457H155.958V283.621C152.31 285.293 151.224 289.93 147.542 291.437L118.16 291.368C110.895 290.149 113.367 278.208 115.644 273.551C106.446 275.113 97.1335 288.009 104.622 296.318C105.893 297.726 110.287 300.413 112.096 300.413H129.824C128.628 302.96 126.067 304.423 123.611 305.582C114.398 309.936 100.945 312.095 98.5635 299.01C96.7698 289.168 100.277 279.297 106.675 271.864C106.69 271.038 102.141 271.227 101.354 271.386C99.4255 271.789 98.3742 273.516 96.979 274.66C96.5206 271.282 98.9172 262.242 102.784 261.62C103.79 261.46 105.38 261.535 106.406 261.689C108.887 262.052 113.098 264.212 115.454 264.212H124.229L121.553 272.73L118.12 272.844L117.562 273.406C117.173 277.232 115.893 281.267 121.035 281.765C127.617 282.402 140.517 282.282 147.198 281.76C149.047 281.616 152.156 280.825 153.357 279.332C154.423 278.004 150.791 277.004 149.704 276.615C145.056 274.954 143.172 275.212 139.54 278.76C140.98 270.123 142.53 264.177 152.679 266.928C158.544 268.516 164.009 272.177 170.517 271.675L167.731 279.148C165.978 279.76 164.164 279.934 162.395 280.531C161.747 280.75 160.342 281.093 160.068 281.75H177.612L175.355 258.818L180.038 248.922L183.586 281.755H183.571Z" fill="white"/>
<path d="M239.56 272.048L237.318 268.142C235.061 266.471 230.865 269.72 229.281 271.461C220.253 281.362 236.516 276.735 238.484 281.158C239.047 282.422 238.514 284.133 238.274 285.497C237.881 287.716 236.296 294.129 234.921 295.577C232.27 298.353 226.331 300.746 222.54 301.115C202.32 303.065 207.746 283.691 212.699 271.685C213.342 271.595 213.058 272.536 213.068 272.984C213.217 278.272 208.419 286.95 214.841 290.616C221.264 294.283 228.748 290.701 234.717 288.094C234.827 287.372 234.423 287.099 233.78 286.979C230.317 286.348 223.601 288.557 222.809 283.024C221.907 276.75 229.141 260.142 236.047 259.013C244.921 257.56 240.163 267.516 239.57 272.048H239.56Z" fill="white"/>
<path d="M419.102 250.037L420.965 271.123C421.11 275.889 420.811 280.705 419.48 285.303C419.356 285.726 417.422 291.766 416.491 290.706L413.526 261.441C413.571 260.346 417.283 251.654 418.04 250.654C418.359 250.231 418.429 249.888 419.097 250.037H419.102Z" fill="white"/>
<path d="M183.197 327.28L187.627 327.33L190.103 337.734L192.58 327.33L197.009 327.28V344.072H194.398V331.758C193.885 331.668 193.83 332.42 193.75 332.788C192.963 336.495 192.415 340.331 191.782 344.072H188.429L186.187 333.629V344.077H183.202V327.285L183.197 327.28Z" fill="white"/>
<path d="M157.442 376.164C156.326 374.442 154.264 373.387 152.216 373.552C152.091 371.935 153.885 370.855 155.385 370.915C158.21 371.034 160.078 375.343 162.28 375.995C163.681 376.407 165.33 376.059 166.775 376.164C167.044 375.89 165.863 369.492 165.629 368.606C165.539 368.268 164.901 368.432 164.866 367.78C164.812 366.725 165.39 365.79 165.629 364.815L166.391 364.596C166.212 365.72 168.195 366.357 168.284 366.72C168.554 367.865 167.492 369.367 167.507 370.731C167.542 373.447 169.186 376.611 168.638 379.517H144.189C143.222 379.517 142.714 376.004 143.815 375.422C145.33 376.681 147.427 376.014 149.231 376.159C149.435 374.681 146.79 372.268 146.7 371.825C146.67 371.666 147.243 368.8 147.368 368.701C148.23 367.989 149.43 370.377 149.68 371.054C150.302 372.756 150.482 374.358 150.352 376.169H157.442V376.164Z" fill="white"/>
<path d="M337.547 327.28C342.256 328.061 342.829 335.539 338.11 336.614L342.216 344.072L338.544 344.013C337.233 341.699 336.147 336.898 332.883 337.355V344.072H329.525V327.28C331.972 327.564 335.215 326.892 337.552 327.28H337.547ZM332.505 334.37C335.454 334.281 339.156 335.41 337.921 331.007C337.223 329.828 333.755 330.39 332.505 330.265V334.375V334.37Z" fill="white"/>
<path d="M237.133 327.28C242.211 327.997 242.759 335.325 238.065 336.614L242.171 344.072C236.137 345.799 237.951 336.639 232.47 337.355V344.072H229.485V327.842L230.043 327.285C232.266 327.504 234.991 326.982 237.133 327.285V327.28ZM232.465 334.37C235.415 334.281 239.117 335.41 237.881 331.007C237.183 329.828 233.715 330.39 232.465 330.265V334.375V334.37Z" fill="white"/>
<path d="M310.009 327.365C310.98 327.166 313.023 327.151 314.005 327.305C321.16 328.415 321.568 345.809 311.075 344.41C303.262 343.371 303.785 328.633 310.009 327.365ZM309.849 340.594C311.638 342.177 314.313 341.51 315.35 339.42C317.084 335.922 316.042 328.813 310.836 330.43C307.632 331.425 307.746 338.734 309.854 340.594H309.849Z" fill="white"/>
<path d="M367.966 327.28V333.997H373.192V327.28C374.318 327.385 375.758 326.862 376.551 327.837V344.067H373.192V336.977H367.966V344.067H364.981V327.275H367.966V327.28Z" fill="white"/>
<path d="M142.136 327.28V333.997H147.363V327.28H150.352V344.072H147.363V336.982H142.136V344.072H139.151V327.28H142.136Z" fill="white"/>
<path d="M218.658 327.28V330.265H211.194V333.997H217.911V336.982H211.194V341.087H218.474L218.972 341.704L219.032 344.072H208.205V327.28H218.658Z" fill="white"/>
<path d="M172.375 327.28V330.265H164.906V333.997H171.628V336.982H164.906V341.087H172.186L172.689 341.704L172.744 344.072H161.922V327.28H172.375Z" fill="white"/>
<path d="M394.792 327.33L400.442 344.067L397.138 344.018L396.007 340.56L390.402 340.376L389.605 344.052L386.262 344.067L391.523 327.315L394.792 327.33ZM394.842 337.35L394.672 335.843L392.978 331.758L391.483 337.35H394.842Z" fill="white"/>
<path d="M281.807 299.736C283.003 299.05 286.605 302.796 287.672 303.652C287.881 304.468 285.036 309.205 284.358 309.573C283.048 310.284 279.894 306.578 278.564 306.03L276.097 309.687H275.285C274.941 309.563 270.841 306.264 270.721 305.995C270.028 304.478 273.641 301.373 273.915 299.667L278.952 303.304L281.812 299.736H281.807Z" fill="white"/>
<path d="M199.246 379.522C195.449 379.039 185.923 381.169 182.923 379.234C180.686 377.786 181.777 373.447 182.719 371.382C182.963 370.845 182.505 370.367 183.566 370.571C183.412 372.308 182.325 376.169 185.25 376.169H194.393C194.393 375.517 193.616 375.96 193.432 375.079C193.038 373.228 194.931 369.123 197.168 369.437C198.205 369.417 199.241 371.915 199.241 372.621V379.527L199.246 379.522Z" fill="white"/>
<path d="M230.92 307.189C231.339 307.911 228.409 312.304 227.826 312.752C226.416 313.827 223.352 310.254 221.832 309.727C220.023 310.145 219.705 313.036 217.816 312.662C216.944 312.493 213.043 310.03 213.053 309.19L217.019 303.786C217.602 303.667 220.133 306.866 221.543 307.08C223.237 307.344 224.358 303.801 225.554 303.771L230.92 307.185V307.189Z" fill="white"/>
<path d="M128.324 367.203L129.904 375.701C130.656 376.472 134.204 376.243 135.26 375.815C136.999 375.109 138.593 369.387 140.96 372.671C142.385 374.656 142.171 377.213 142.141 379.517C140.472 380.079 138.294 378.462 137.069 378.393C136.097 378.338 135.534 379.323 134.473 379.497C130.367 380.169 127.936 379.666 127.956 375.039C127.119 375.412 127.363 376.85 126.207 377.204C124.712 377.656 123.342 377.014 121.996 376.507C121.722 376.134 123.392 372.875 123.845 372.338C124.483 371.576 126.421 370.641 126.864 370.029C127.532 369.109 126.909 367.014 128.329 367.203H128.324ZM127.577 371.686L124.592 373.362C124.956 374.188 126.81 373.895 127.577 373.925V371.686Z" fill="white"/>
<path d="M295.18 327.28V330.265H288.459V333.997H294.433V336.982H288.459V344.072H285.474V327.28H295.18Z" fill="white"/>
<path d="M255.24 337.166L250.018 327.28L253.691 327.34L257.104 333.624C258.628 330.678 258.678 326.245 263.078 327.285C263.446 327.633 262.166 329.862 261.902 330.4C261.384 331.459 258.225 336.43 258.225 336.798V344.072H255.24V337.166Z" fill="white"/>
<path d="M418.359 327.28V340.157C418.359 341.968 416.321 344.256 414.448 344.46C410.527 344.883 409.226 342.405 409.027 338.853L412.011 338.475C411.742 339.943 413.227 342.58 414.642 340.913C414.787 340.744 415.375 339.515 415.375 339.405V327.275H418.359V327.28Z" fill="white"/>
<path d="M116.755 327.653V341.087H123.287L123.79 341.704L123.85 344.072H113.77V327.653H116.755Z" fill="white"/>
<path d="M274.273 377.651C271.413 372.641 278.539 369.109 281.364 373.92C279.067 373.606 277.258 373.382 275.046 374.328C275.37 379.313 280.527 376.368 283.601 376.169C283.531 378.477 280.233 379.099 278.394 379.358C277.128 379.537 271.299 379.811 270.532 379.343C268.563 376.696 269.371 373.114 269.002 370.054C268.723 367.765 266.944 366.576 269.231 364.601C270.701 368.382 270.073 372.666 270.611 376.651C271.03 378.084 273.108 377.617 274.268 377.656L274.273 377.651Z" fill="white"/>
<path d="M106.072 291.686C105.738 291.278 104.558 289.945 104.488 289.691C104.154 288.512 106.904 284.089 107.996 283.979C109.361 283.835 112.585 286.696 112.869 288.094C113.153 289.492 110.243 293.442 109.052 294.413C108.608 294.487 106.456 292.159 106.077 291.686H106.072Z" fill="white"/>
<path d="M300.023 365.715C300.138 366.825 301.11 367.596 302.046 366.86C302.575 366.442 301.812 365.432 303.013 365.715C303.651 367.357 302.998 370.502 300.97 370.601C299.455 370.676 299.152 369.87 297.462 371.357C298.603 374.173 298.035 376.691 297.413 379.522H296.302C296.436 377.009 296.302 374.79 295.365 372.437C294.358 369.914 292.764 369.362 294.438 366.093C295.773 366.223 296.117 367.835 297.607 367.919C298.818 367.989 299.236 367.019 299.286 365.954L300.028 365.72L300.023 365.715Z" fill="white"/>
<path d="M386.999 360.118L386.635 361.82L385.136 361.611C385.031 362.357 385.061 362.233 385.609 362.461C386.396 362.79 387.562 361.914 387.373 362.919C387.183 363.924 386.331 364.068 385.504 364.233C386.282 368.183 387.373 372.701 387.014 376.736C386.909 377.89 386.59 380.209 385.136 380.263C385.021 378.378 385.29 376.353 385.131 374.487C384.971 372.621 383.92 369.432 383.995 367.77C384.049 366.487 385.036 365.79 385.136 364.596C382.051 365.243 383.646 364.884 383.91 363.611C383.99 363.233 383.646 362.715 383.721 362.252C383.95 360.859 385.649 359.899 387.004 360.123L386.999 360.118Z" fill="white"/>
<path d="M170.88 380.263C172.066 375.223 167.821 368.646 171.249 364.596C171.792 368.312 173.083 372.616 172.764 376.368C172.724 376.855 171.807 381.333 170.885 380.268L170.88 380.263Z" fill="white"/>
<path d="M216.75 365.76L216.421 367.949L219.017 368.72C219.351 369.203 218.125 371.357 217.423 371.273C217.039 371.228 216.59 370.651 216.177 370.621C215.604 370.576 214.572 371.81 213.093 370.532C212.824 370.158 213.646 367.72 214.553 367.949L213.78 367.367L214.563 364.969L216.75 365.76ZM216.416 368.327L214.931 367.949V368.696H216.421V368.332L216.416 368.327Z" fill="white"/>
<path d="M372.041 363.879L371.329 366.457C372.236 365.939 373.207 366.487 373.97 367.054L373.187 369.442L370.796 368.671L370.043 369.457C368.554 368.994 367.667 368.223 368.748 366.671C369.151 366.093 369.944 366.258 369.834 365.715L369.067 365.481C369.231 362.964 369.974 362.775 372.046 363.879H372.041Z" fill="white"/>
<path d="M313.093 378.029L309.774 375.91L310.487 372.427C314.069 373.139 314.094 374.9 313.093 378.024V378.029Z" fill="white"/>
<path d="M129.416 362.765C129.779 363.277 128.683 365.228 128.095 365.317C126.257 363.865 125.559 366.019 123.496 364.576L124.807 361.989C126.655 363.491 127.368 361.282 129.416 362.765Z" fill="white"/>
<path d="M154.084 368.317L155.235 365.73C156.705 366.133 158.304 366.457 157.532 368.218C156.521 370.527 155.689 368.571 154.079 368.317H154.084Z" fill="white"/>
<path d="M197.373 367.949L194.797 366.591L195.524 364.223L198.1 365.581L197.373 367.949Z" fill="white"/>
<path d="M236.565 372.054L233.99 370.696L234.717 368.327L237.293 369.686L236.565 372.054Z" fill="white"/>
<path d="M335.111 372.054L332.535 370.696L333.257 368.327L335.838 369.686L335.111 372.054Z" fill="white"/>
</g>
<defs>
<clipPath id="clip0_54_911">
<rect width="330" height="256" fill="white" transform="translate(91 128)"/>
</clipPath>
</defs>
</svg>
