<svg width="258" height="200" viewBox="0 0 258 200" fill="none" xmlns="http://www.w3.org/2000/svg">
<g clip-path="url(#clip0_6_17)">
<path d="M0 174.637H255.764C256.22 174.691 256.025 176.763 254.926 176.402L0 176.386L0 174.637Z" fill="#8E1838"/>
<path d="M0 147.816L255.768 147.809L255.939 149.103L0 149.274V147.816Z" fill="#8E1838"/>
<path d="M210.409 200C209.72 199.304 208.462 199.258 208.66 197.959C210.884 199.561 213.05 198.554 214.686 196.692C216.603 194.508 214.838 194.473 214.554 193.081C214.433 192.498 214.963 191.647 214.788 190.963C216.198 191.13 216.354 192.762 216.245 193.878H220.331C220.608 193.046 219.501 192.346 219.517 191.744C219.521 191.573 220.089 189.82 220.187 189.793C220.752 189.633 220.608 190.061 220.767 190.364C221.367 191.491 221.628 192.584 221.496 193.874H226.459C225.605 192.074 222.956 192.424 222.438 190.446C221.718 187.674 225.337 186.683 227.331 186.003L227.203 188.642C226.786 189.233 224.378 188.879 224.709 189.641C226.723 191.643 228.843 193.31 228.208 196.498H216.681L214.199 199.996H210.405L210.409 200Z" fill="#8E1838"/>
<path d="M109.727 200C107.343 198.581 107.69 196.117 108.707 193.878C109.042 193.135 110.759 191.025 110.257 192.801C109.969 193.816 108.765 195.063 109.287 196.202C110.163 198.123 116.026 198.076 116.618 195.922C116.988 194.581 115.617 193.579 115.629 192.91C115.637 192.611 116.346 190.671 116.587 190.675C117.397 191.515 117.651 192.751 117.608 193.874C120.549 194.434 120.56 192.366 121.971 191.095C124.771 188.572 125.8 194.578 125.488 196.502C124.14 197.022 122.228 195.6 121.246 195.646C120.716 195.674 120.319 196.307 119.739 196.443C119.158 196.579 117.795 196.393 117.635 196.529C117.538 196.61 117.312 198.239 116.743 198.904C116.346 199.37 115.641 199.479 115.274 200H109.731H109.727Z" fill="#8E1838"/>
<path d="M186.772 200C184.387 198.581 184.734 196.117 185.751 193.878C186.086 193.135 187.804 191.025 187.301 192.801C187.013 193.816 185.809 195.063 186.331 196.202C187.208 198.123 193.07 198.076 193.663 195.922C194.033 194.581 192.661 193.579 192.673 192.91C192.681 192.611 193.39 190.671 193.631 190.675C194.442 191.515 194.695 192.751 194.652 193.874C198.08 194.597 197.757 191.079 200.328 190.36C201.73 190.484 203.062 195.285 202.404 196.226C201.672 197.271 199.12 195.604 198.29 195.643C197.761 195.67 197.363 196.303 196.783 196.439C196.202 196.575 194.839 196.389 194.679 196.525C194.582 196.607 194.356 198.235 193.787 198.9C193.39 199.366 192.685 199.475 192.319 199.996H186.775L186.772 200Z" fill="#8E1838"/>
<path d="M-2.15871e-05 164.725L3.05791 155.975L5.35623 155.73L9.92171 168.659L7.31954 168.779L6.22881 165.934L2.20481 165.88L1.46857 168.624L-0.0078125 168.81V164.729L-2.15871e-05 164.725ZM5.83537 163.555C5.07576 162.245 5.1225 160.247 4.08631 159.186L2.91768 163.555H5.83537Z" fill="#8E1838"/>
<path d="M84.0484 200C83.4758 199.242 82.0617 199.199 82.2994 197.959C84.6639 198.993 85.4508 199.137 87.5271 197.497C91.1615 194.62 87.5426 194.368 88.723 190.963C89.4787 190.407 90.3863 193.353 90.1799 193.878C91.9328 193.952 93.2495 193.104 93.0976 191.25H93.9701L94.013 193.544C95.0063 193.998 96.8489 194.142 97.6397 193.31C98.2006 192.72 97.9708 191.736 98.7888 191.258C99.7159 191.767 98.6603 192.739 99.0576 193.306L100.394 193.582C99.8601 192.591 99.8795 191.064 101.266 190.963C101.181 191.25 101.562 191.577 101.562 191.689V196.502C100.569 196.886 99.1667 196.012 98.4967 196.035C98.1539 196.047 97.7526 196.463 97.3163 196.486C95.8711 196.568 93.8026 196.984 93.2456 195.336C92.856 196.614 90.3162 196.397 90.1954 196.517C90.1487 196.564 90.1643 197.368 89.9111 197.835C89.4592 198.671 88.6334 199.207 88.1348 200H84.0484Z" fill="#8E1838"/>
<path d="M131.908 200C130.533 196.793 132.5 195.032 135.702 195.04L134.619 193.905L132.784 194.457C133.941 190.158 137.973 193.551 137.747 196.498C135.983 196.463 134.136 196.649 132.543 197.419L132.784 199.996H131.908V200Z" fill="#8E1838"/>
<path d="M142.85 76.392L148.39 68.5052C148.764 67.4752 148.113 66.7638 148.366 65.5899C148.779 63.7008 150.497 63.5181 151.089 62.1771C152.371 59.289 152.09 53.8161 155.102 51.6082C156.5 50.5821 156.804 50.6481 158.307 49.2721C158.697 48.9145 159.585 48.7357 159.78 48.4092C160.033 47.9855 159.916 46.8466 160.119 46.1236C160.672 44.1568 162.963 41.6574 164.435 40.2309C165.035 39.6517 167.754 37.716 167.96 37.3234C168.315 36.6509 167.493 35.4071 168.377 33.9611C169.374 32.3324 171.174 32.2819 172.051 31.5083C172.982 30.6843 172.962 27.7535 175.07 27.9634L175.175 5.76835C175.603 2.8142 178.229 -0.0738708 181.361 -1.70209e-05C182.561 0.0271923 186.102 1.67141 187.161 2.39051C189 3.63437 189.802 5.55068 189.993 7.72354C190.57 14.3704 189.506 21.8063 190.02 28.5386C193.877 28.9934 196.226 30.1829 198.727 33.1059C199.853 34.4197 200.554 36.0484 201.52 37.3195C203.623 40.0754 204.714 40.4913 206.249 44.2501C207.16 46.4851 207.807 50.6404 208.66 52.2613C208.828 52.58 210.14 53.3963 210.651 54.1387C211.551 55.4409 211.995 57.8431 212.906 58.8809C213.35 59.3862 214.227 59.6933 214.784 60.2103C217.44 62.663 216.63 65.0263 218.426 67.3585C221.955 71.9375 225.956 70.1844 230.26 72.4467C232.2 73.4651 233.178 75.0277 234.771 76.3959H243.38V78.1451H99.2212V76.3959H142.85V76.392ZM188.521 27.9984V7.7352C188.521 5.82666 186.612 3.08629 184.547 2.9347C182.861 2.81031 180.06 4.98706 180.06 6.56908V27.9945H188.525L188.521 27.9984Z" fill="#8E1838"/>
<path d="M25.0984 60.941L26.2397 60.9721L26.2709 61.8156C29.286 57.9947 31.8297 53.5712 34.3501 49.3499C34.7864 48.6191 35.5849 47.8456 35.9745 46.8583C36.1342 46.4501 35.8381 45.9254 35.9199 45.8204C36.0212 45.6805 38.5065 44.7204 39.0636 44.425C49.0243 39.158 58.0578 31.9709 62.4675 21.2971C63.6595 21.1883 63.7686 22.4943 64.3217 23.2017C70.4064 30.9875 77.2975 38.2796 86.2453 42.8391C87.1997 40.95 89.2526 38.5283 89.9733 36.6509C90.1759 36.1184 89.8837 35.648 89.9149 35.6053C90.0317 35.4537 92.8209 34.3031 93.3974 33.9805C101.352 29.5415 108.971 23.5438 112.357 14.7902L113.089 14.5842C118.698 23.501 126.879 30.5405 136.423 35.0106L144.323 48.4248L146.212 48.4053V52.1991L144.771 52.1796L144.482 50.8697L136.878 38.7849L136.894 49.9912C137.439 51.0913 139.403 56.6575 140.092 57.0073C140.431 57.1823 140.867 57.124 141.241 57.1628L141.253 60.941L140.127 60.8983L136.878 53.6528L136.656 59.9887L127.237 71.5954L126.863 71.6732C125.734 71.5682 122.068 66.9854 120.631 65.9436C114.706 61.6407 111.036 67.2925 107.273 71.1562C107.02 71.3894 106.724 71.4555 106.389 71.4555C104.601 71.471 98.2862 67.1836 96.1632 66.4801L90.7719 59.4795C90.4135 63.763 93.6078 67.4557 94.8855 71.4011L96.3151 71.4322V75.8051L95.1659 75.7895C95.0997 74.6351 94.5037 73.4729 94.0324 72.4C93.1676 70.4332 92.3184 68.1826 91.0601 66.4762V74.4913C87.5698 79.3384 83.6821 83.7541 79.4867 88.0065L78.2207 87.9016C75.825 85.0562 71.5945 79.1363 67.5627 78.9963C63.4413 78.8564 57.1229 84.2555 55.7167 88.0065C55.1635 88.1931 54.6103 87.9987 54.0806 87.8199C52.5535 87.3029 43.9835 83.0972 42.8344 82.2265C42.0085 81.6007 40.54 78.7126 39.792 78.4833L17.2101 78.3006L16.9374 76.3842L38.5338 76.6758C38.6974 76.5553 36.2004 73.5778 36.2004 73.3251V68.8084C34.6539 70.8608 32.7451 73.3407 32.0946 75.7856L30.9493 75.8051V71.4322C31.4557 71.2922 32.1219 71.7353 32.5231 71.6615C32.8542 71.5993 36.2043 66.379 36.2043 66.0408V49.2799L26.2475 65.5666L25.1178 65.6055V60.941H25.0984ZM92.2171 36.1611L97.324 42.8585C102.108 38.9948 105.941 33.9183 108.403 28.2782C109.225 26.3969 110.218 24.2007 110.308 22.1639C105.395 28.0839 99.3886 33.1798 92.2171 36.1611ZM117.265 22.5215C117.09 22.4204 116.482 22.3233 116.443 22.6031C118.266 25.3707 120.198 28.1577 122.419 30.626C124.448 32.8805 128.305 36.7209 130.681 38.4739C131 38.711 131.452 39.1969 131.912 38.952C132.06 38.8743 133.739 36.6548 133.957 36.3088C134.148 36.0134 134.401 36.0095 134.109 35.5664C133.922 35.2788 129.068 32.795 128.141 32.1964C125.57 30.5366 122.107 27.9478 119.937 25.8138C119.45 25.3318 117.483 22.642 117.265 22.5176V22.5215ZM112.353 23.6254C111.714 23.5088 111.663 23.9053 111.484 24.3562C109.174 30.1401 107.729 34.031 103.592 38.9209C102.365 40.3708 100.101 42.015 99.2172 43.2977C99.0458 43.5426 98.8121 43.5854 98.929 44.0246L105.275 46.9049C106.167 47.0371 106.685 45.972 107.109 45.3501C109.567 41.7079 111.153 34.5286 111.733 30.1479C112.018 27.9945 111.885 25.7361 112.353 23.6293V23.6254ZM115.559 23.917L114.974 24.0647C116.79 32.2663 119.279 41.2454 126.182 46.6406L130.724 40.6779C125.305 35.442 119.294 30.5988 115.555 23.917H115.559ZM124.027 47.2353C119.676 42.6603 117.047 37.4361 115.196 31.4267C114.78 30.0701 114.593 28.5348 114.145 27.2287C114.016 26.8478 114.063 26.3386 113.525 26.2492C113.206 31.9009 112.138 38.4662 109.778 43.6476C109.158 45.008 108.282 46.1742 107.686 47.5307L124.027 47.2392V47.2353ZM60.9911 27.7068L56.4724 33.5413C51.42 39.0375 45.1444 43.1462 38.526 46.5318L38.8065 47.3947L44.1004 54.5041C44.3887 54.7023 45.1015 54.1465 45.3781 53.9405C52.3315 48.8679 57.4969 38.7655 60.2042 30.8553C60.5509 29.8447 60.6912 28.733 60.9911 27.7107V27.7068ZM66.8304 29.1645C67.5355 31.726 69.5572 34.5053 71.2089 36.5926C75.2835 41.7313 80.3905 45.8826 85.065 50.4421C85.3143 50.4421 87.8814 47.0254 88.1541 46.5318C88.3138 46.2402 88.5476 46.1625 88.2944 45.7738C88.1113 45.4939 83.947 43.4532 83.1913 42.9907C80.9475 41.6108 78.5596 39.9432 76.4872 38.3184C72.9696 35.5625 69.9195 32.3713 66.8304 29.1645ZM64.7892 29.456C66.8732 40.1376 69.787 52.0319 78.6531 59.1374L84.2898 51.7521C78.5479 46.4268 72.5178 41.3076 68.0536 34.7929L64.7931 29.456H64.7892ZM76.46 59.4795C71.6802 54.8578 68.5678 49.0739 66.4603 42.7963L63.3323 31.2052C61.9104 41.0433 60.3717 51.0368 56.0361 60.0626L76.4639 59.4795H76.46ZM45.8183 55.6896L54.2792 59.359C56.9242 55.3359 58.3071 50.1467 59.3355 45.4356C59.9744 42.497 60.7184 38.9015 60.921 35.9318C60.9599 35.376 61.1547 35.1 60.5548 34.7074C57.3605 42.8546 52.4795 50.0068 45.8183 55.6896ZM135.118 46.0731V37.3272L133.053 40.0754C132.391 41.2959 133.614 43.2628 134.191 44.5222C134.393 44.9653 134.674 45.9215 135.118 46.077V46.0731ZM91.9249 38.4934V49.5714L95.7152 43.5893L91.9249 38.4934ZM90.468 38.7849C89.7668 38.6294 89.9967 38.9093 89.8175 39.1658C89.424 39.7333 87.5386 42.8935 87.5464 43.3211C87.5581 44.0246 89.7863 44.7826 90.468 44.907V38.7849ZM131.324 64.0001V42.5748L127.105 48.1255L126.929 49.1166L127.241 68.8123L131.324 64.004V64.0001ZM132.78 44.3239V62.1071L134.958 59.4717C135.309 56.1716 135.044 52.7782 135.098 49.4432L132.784 44.3239H132.78ZM105.349 69.3953V48.8407C102.949 47.6396 100.242 46.0109 97.7837 45.0275C97.5461 44.9303 97.1604 44.7437 97.1721 45.0547L97.4565 65.4072L105.349 69.3915V69.3953ZM95.7191 63.2733V46.3646L92.0613 51.8959C91.7613 53.0387 91.7574 57.466 92.1937 58.4883L95.7191 63.2771V63.2733ZM89.2994 58.9003V49.1361C89.2994 48.9767 88.8709 48.4947 89.0033 48.1177C88.8358 47.9389 86.1363 51.4372 86.3583 52.0591L89.2994 58.9042V58.9003ZM37.6456 48.6968V63.5648C39.6284 61.0227 41.3385 58.1735 42.8422 55.3009C42.8071 54.9045 38.9311 49.8591 38.3156 49.0622C38.1287 48.8173 38.3234 48.5336 37.6456 48.693V48.6968ZM107.102 48.9884V59.1919C109.626 57.5749 114.842 52.1563 114.99 49.14C115.021 48.5219 114.978 48.7629 114.554 48.6968C112.583 48.3898 109.303 49.4626 107.102 48.9884ZM125.488 48.6968H117.316C118.441 51.721 120.358 55.0094 122.8 57.1356C123.501 57.7459 124.608 58.5738 125.484 58.9003V48.6968H125.488ZM84.9209 80.3257V53.6528L79.6698 60.5018V85.7209L84.9209 80.3257ZM86.3817 78.4327C87.2309 77.4921 89.0812 75.3969 89.2838 74.192C89.8486 70.8063 88.8826 66.0758 89.315 62.5308L86.3817 55.9851V78.4327ZM44.3575 56.5681V81.348L53.9832 86.0125L54.2987 61.6562L54.0961 61.2015L44.3536 56.5681H44.3575ZM42.9006 79.3073V58.0257C41.5216 60.1908 37.93 64.4782 37.6456 66.9154C36.9834 72.6488 38.7052 74.8294 42.2306 78.9342C42.4098 79.1441 42.215 79.4822 42.9006 79.3034V79.3073ZM64.349 61.5241C61.4975 61.6796 58.5954 61.4114 55.74 61.5241V74.3513C58.759 72.5555 61.291 70.0328 63.2193 67.102C63.9127 66.0525 65.7942 62.764 65.9578 61.6679C66.1097 60.6534 64.6061 61.5124 64.349 61.5241ZM78.209 61.2326H67.9951C70.2389 66.2157 73.1683 71.2028 78.209 73.7683V61.2326ZM107.102 68.8123C108.855 67.0204 109.91 66.4023 108.613 63.9496C108.329 63.4132 107.799 62.3365 107.102 62.3987V68.8123ZM125.776 68.5169L125.2 62.6902C123.833 65.4655 123.131 65.5899 125.11 68.1515C125.297 68.3964 125.106 68.684 125.776 68.5169ZM55.7439 85.1379C56.4412 84.6131 58.6071 82.1993 58.6382 81.5035C58.6733 80.7105 57.1541 77.6203 56.4685 77.2705C55.8063 77.15 56.0672 77.5581 56.0361 77.9935C55.8647 80.3335 55.9465 82.7901 55.7478 85.1418L55.7439 85.1379ZM78.209 77.2666C76.9118 77.4765 75.564 80.0264 75.5718 81.2081C75.5796 82.3897 77.4143 84.2361 78.209 85.1379V77.2666Z" fill="#8E1838"/>
<path d="M240.174 118.955C240.167 116.98 240.085 114.944 239.878 112.981C239.606 110.384 239.08 105.444 238.394 103.096C238.059 101.949 236.859 101.207 236.711 100.67C236.505 99.928 238.885 94.8593 239.438 93.8798C239.571 93.6427 240.342 91.9557 240.755 92.4261C240.665 96.5463 244.748 98.1944 247.443 100.472C247.642 101.312 243.754 105.829 243.443 107.208C242.769 110.19 244.194 114.893 243.961 118.22C243.871 119.507 242.823 125.544 242.227 126.321C242.095 126.492 241.635 126.826 241.483 126.826H220.619V120.121C217.807 120.673 215.991 126.348 213.693 126.756C209.63 127.476 204.017 127.235 199.755 127.413C199.194 127.437 198.633 127.689 198.014 127.713C195.217 127.833 192.389 127.608 189.588 127.689L188.061 130.923C186.721 131.141 179.327 124.117 177.567 123.911C176.936 123.837 177.232 123.993 177.107 124.319C176.597 125.68 176.846 127.468 174.961 127.717C170.605 128.288 164.918 127.312 160.415 127.639C158.685 127.013 158.085 125.128 157.435 123.616C157.03 123.616 156.083 127.67 155.101 127.701C148.943 127.32 142.204 128.206 136.119 127.713C135.141 127.635 134.459 127.285 133.536 127.095C131.912 130.251 129.251 137.974 125.029 138.208C122.5 138.348 117.206 135.335 115.259 133.679C115.006 133.462 113.182 131.782 113.514 131.491C115.82 131.654 116.381 134.041 119.135 133.465C121.604 132.948 128.908 127.678 130.015 125.384C131.121 123.091 128.083 120.043 127.237 117.941L129.855 111.962C130.373 111.85 130.432 112.114 130.681 112.444C132.391 114.703 133.369 119.324 136.547 119.993L156.504 120.133C157.353 119.935 156.671 114.419 157.641 113.338L161.073 108.464C161.502 111.418 160.442 114.808 160.777 117.653C160.956 119.157 162.074 119.954 163.551 120.133C166.18 120.448 173.788 120.456 176.414 120.141C176.768 120.098 176.998 120.133 177.282 119.841C177.609 119.507 178.7 116.533 179.23 115.663C180.453 113.645 183.024 110.866 185.47 110.532C189.241 110.011 187.932 111.636 188.641 114.306C188.918 115.348 190.683 119.045 191.415 119.698C191.742 119.985 191.964 120.195 192.443 120.152C198.832 119.251 205.318 119.666 211.718 119.262C214.48 119.087 216.852 118.893 218.718 116.635C219.018 116.285 218.843 116.153 218.558 115.904C218.114 115.515 213.261 113.809 212.548 113.731C210.464 113.505 208.473 114.831 207.184 116.335C208.458 110.47 208.894 104.748 216.517 106.571C218.991 107.162 224.892 110.505 226.587 110.505H232.278L229.957 116.786L226.283 117.49L223.521 118.959H240.155L240.174 118.955ZM185.307 120.117C185.833 117.132 184.578 116.23 181.809 117.497L185.307 120.117Z" fill="#8E1838"/>
<path d="M72.3736 120.121H79.6698C79.5218 115.562 79.1361 110.233 78.1311 105.77C77.726 103.967 77.2118 103.621 76.1756 102.198C77.3208 99.5588 78.1272 96.6318 80.1139 94.4668C80.7722 94.1908 80.5385 95.9827 80.6865 96.5152C81.3176 98.8125 85.2169 100.74 86.9426 102.221C87.1725 103.182 83.1718 107.411 82.8952 108.911C82.3772 111.702 83.5808 116.355 83.4796 119.406C83.4367 120.739 82.4239 126.671 81.5747 127.413C81.3955 127.569 81.2475 127.709 80.9904 127.705L69.0313 127.697C67.6445 127.433 67.9795 125.839 67.7848 124.848C67.7263 124.549 67.851 124.121 67.4225 124.207L65.8137 127.701H50.785V121.579C47.9335 122.885 47.0843 126.508 44.2056 127.685L21.2341 127.631C15.5545 126.679 17.4866 117.35 19.2669 113.712C12.0758 114.932 4.79523 125.007 10.6501 131.499C11.6434 132.599 15.0792 134.698 16.4933 134.698H30.3533C29.4184 136.688 27.4161 137.831 25.4957 138.736C18.293 142.137 7.77525 143.824 5.91323 133.601C4.51086 125.913 7.25326 118.201 12.255 112.394C12.2667 111.749 8.71016 111.896 8.09468 112.021C6.58714 112.335 5.7652 113.684 4.67447 114.578C4.31609 111.939 6.1898 104.876 9.21268 104.39C9.99956 104.266 11.2422 104.324 12.0447 104.445C13.9846 104.729 17.2763 106.416 19.1188 106.416H25.9787L23.8869 113.07L21.2029 113.16L20.7666 113.599C20.4628 116.588 19.4616 119.74 23.4817 120.129C28.6276 120.627 38.713 120.533 43.9368 120.125C45.382 120.012 47.8128 119.394 48.7516 118.228C49.5852 117.19 46.7454 116.409 45.8962 116.106C42.2617 114.808 40.7892 115.01 37.9495 117.781C39.0752 111.033 40.2867 106.388 48.2218 108.538C52.8067 109.778 57.0801 112.639 62.1675 112.246L59.99 118.084C58.6188 118.563 57.2008 118.699 55.8179 119.165C55.3115 119.336 54.213 119.604 53.9987 120.117H67.7147L65.95 102.202L69.6117 94.4706L72.3853 120.121H72.3736Z" fill="#8E1838"/>
<path d="M116.147 112.538L114.394 109.486C112.629 108.18 109.349 110.718 108.111 112.079C101.052 119.814 113.767 116.199 115.305 119.655C115.746 120.642 115.329 121.979 115.142 123.044C114.834 124.778 113.595 129.788 112.52 130.919C110.448 133.088 105.804 134.958 102.84 135.246C87.0322 136.769 91.2744 121.633 95.1465 112.254C95.649 112.184 95.4269 112.919 95.4347 113.268C95.5516 117.4 91.8003 124.179 96.8215 127.044C101.843 129.909 107.694 127.11 112.36 125.073C112.446 124.51 112.131 124.296 111.628 124.203C108.921 123.709 103.67 125.435 103.05 121.112C102.345 116.211 108.001 103.236 113.401 102.354C120.338 101.219 116.618 108.997 116.155 112.538H116.147Z" fill="#8E1838"/>
<path d="M256.516 95.3413L257.973 111.815C258.086 115.538 257.852 119.301 256.812 122.893C256.714 123.223 255.203 127.942 254.475 127.114L252.157 104.25C252.192 103.395 255.094 96.6046 255.686 95.8233C255.935 95.4929 255.99 95.2247 256.512 95.3413H256.516Z" fill="#8E1838"/>
<path d="M72.0815 155.688L75.5446 155.727L77.4806 163.854L79.4167 155.727L82.8798 155.688V168.806H80.8385V159.186C80.4373 159.116 80.3945 159.703 80.3321 159.991C79.7166 162.886 79.2881 165.883 78.7934 168.806H76.1718L74.4188 160.648V168.81H72.0854V155.692L72.0815 155.688Z" fill="#8E1838"/>
<path d="M51.9458 193.878C51.0733 192.533 49.4605 191.709 47.8595 191.837C47.7621 190.574 49.1645 189.73 50.337 189.777C52.5457 189.87 54.0065 193.237 55.7283 193.746C56.823 194.068 58.1124 193.796 59.242 193.878C59.4524 193.664 58.5292 188.665 58.3461 187.973C58.276 187.709 57.7773 187.837 57.7501 187.328C57.7072 186.504 58.1591 185.773 58.3461 185.012L58.9421 184.841C58.8018 185.719 60.3522 186.217 60.4224 186.5C60.6327 187.394 59.803 188.568 59.8147 189.633C59.8419 191.756 61.1274 194.228 60.6989 196.498H41.5839C40.8282 196.498 40.4309 193.754 41.2918 193.299C42.476 194.282 44.116 193.761 45.5261 193.874C45.6858 192.72 43.6174 190.834 43.5472 190.488C43.5239 190.364 43.9718 188.125 44.0692 188.047C44.7431 187.491 45.6819 189.357 45.8767 189.886C46.3637 191.215 46.5039 192.467 46.4026 193.882H51.9458V193.878Z" fill="#8E1838"/>
<path d="M192.755 155.688C196.436 156.298 196.884 162.14 193.195 162.98L196.405 168.806L193.534 168.76C192.51 166.952 191.66 163.201 189.109 163.559V168.806H186.483V155.688C188.396 155.909 190.932 155.385 192.759 155.688H192.755ZM188.813 161.227C191.119 161.157 194.013 162.039 193.047 158.599C192.502 157.678 189.791 158.117 188.813 158.02V161.231V161.227Z" fill="#8E1838"/>
<path d="M114.25 155.688C118.219 156.247 118.648 161.973 114.978 162.98L118.188 168.806C113.471 170.155 114.889 162.999 110.604 163.559V168.806H108.27V156.127L108.707 155.692C110.444 155.863 112.575 155.454 114.25 155.692V155.688ZM110.6 161.227C112.906 161.157 115.8 162.039 114.834 158.599C114.289 157.678 111.578 158.117 110.6 158.02V161.231V161.227Z" fill="#8E1838"/>
<path d="M171.225 155.754C171.984 155.598 173.582 155.587 174.349 155.707C179.943 156.574 180.262 170.163 172.058 169.071C165.95 168.258 166.359 156.745 171.225 155.754ZM171.1 166.089C172.499 167.325 174.59 166.805 175.401 165.172C176.756 162.439 175.942 156.885 171.871 158.148C169.367 158.926 169.456 164.636 171.104 166.089H171.1Z" fill="#8E1838"/>
<path d="M216.537 155.688V160.935H220.623V155.688C221.503 155.769 222.629 155.361 223.249 156.123V168.803H220.623V163.264H216.537V168.803H214.203V155.684H216.537V155.688Z" fill="#8E1838"/>
<path d="M39.979 155.688V160.935H44.0653V155.688H46.4026V168.806H44.0653V163.267H39.979V168.806H37.6456V155.688H39.979Z" fill="#8E1838"/>
<path d="M99.8055 155.688V158.02H93.9701V160.935H99.2212V163.267H93.9701V166.474H99.6613L100.051 166.956L100.098 168.806H91.6328V155.688H99.8055Z" fill="#8E1838"/>
<path d="M63.6205 155.688V158.02H57.7813V160.935H63.0362V163.267H57.7813V166.474H63.4725L63.866 166.956L63.9088 168.806H55.4479V155.688H63.6205Z" fill="#8E1838"/>
<path d="M237.51 155.727L241.927 168.803L239.345 168.764L238.46 166.062L234.078 165.918L233.455 168.791L230.841 168.803L234.954 155.715L237.51 155.727ZM237.549 163.555L237.416 162.377L236.092 159.186L234.923 163.555H237.549Z" fill="#8E1838"/>
<path d="M149.177 134.169C150.111 133.633 152.928 136.56 153.761 137.228C153.925 137.866 151.701 141.566 151.171 141.854C150.147 142.41 147.681 139.514 146.641 139.086L144.712 141.943H144.077C143.809 141.846 140.603 139.269 140.509 139.059C139.968 137.873 142.792 135.448 143.006 134.115L146.944 136.956L149.18 134.169H149.177Z" fill="#8E1838"/>
<path d="M84.6288 196.502C81.6605 196.125 74.2124 197.788 71.8673 196.276C70.1182 195.145 70.9713 191.756 71.7076 190.142C71.8984 189.723 71.5401 189.349 72.3698 189.509C72.249 190.865 71.3998 193.882 73.6865 193.882H80.8346C80.8346 193.373 80.2269 193.718 80.0828 193.03C79.7751 191.585 81.2553 188.378 83.0044 188.623C83.8147 188.607 84.6249 190.558 84.6249 191.11V196.506L84.6288 196.502Z" fill="#8E1838"/>
<path d="M109.392 139.992C109.719 140.555 107.429 143.988 106.973 144.338C105.871 145.177 103.475 142.386 102.287 141.974C100.873 142.301 100.624 144.559 99.1472 144.268C98.4655 144.135 95.4153 142.211 95.4231 141.554L98.5239 137.333C98.9797 137.24 100.959 139.739 102.061 139.906C103.385 140.112 104.262 137.345 105.197 137.321L109.392 139.988V139.992Z" fill="#8E1838"/>
<path d="M29.1808 186.877L30.4157 193.516C31.0039 194.119 33.7774 193.94 34.6033 193.606C35.9628 193.054 37.2093 188.584 39.0597 191.149C40.1738 192.7 40.0063 194.698 39.9829 196.498C38.6779 196.937 36.9756 195.674 36.0173 195.619C35.2577 195.577 34.8175 196.346 33.9878 196.482C30.7779 197.007 28.877 196.614 28.8925 192.999C28.2381 193.291 28.429 194.414 27.5252 194.69C26.3566 195.044 25.2853 194.543 24.2336 194.146C24.0193 193.855 25.3243 191.309 25.6788 190.889C26.1774 190.294 27.6927 189.563 28.0394 189.085C28.5614 188.366 28.0745 186.73 29.1847 186.877H29.1808ZM28.5965 190.38L26.2631 191.689C26.5475 192.335 27.9966 192.105 28.5965 192.129V190.38Z" fill="#8E1838"/>
<path d="M159.632 155.688V158.02H154.377V160.935H159.048V163.267H154.377V168.806H152.044V155.688H159.632Z" fill="#8E1838"/>
<path d="M128.406 163.411L124.323 155.688L127.194 155.734L129.863 160.644C131.055 158.343 131.094 154.879 134.533 155.692C134.822 155.964 133.821 157.705 133.614 158.125C133.209 158.953 130.739 162.836 130.739 163.124V168.806H128.406V163.411Z" fill="#8E1838"/>
<path d="M255.935 155.688V165.747C255.935 167.162 254.342 168.95 252.877 169.11C249.812 169.44 248.795 167.504 248.639 164.729L250.973 164.434C250.762 165.58 251.923 167.64 253.029 166.338C253.142 166.206 253.602 165.246 253.602 165.16V155.684H255.935V155.688Z" fill="#8E1838"/>
<path d="M20.1356 155.979V166.474H25.2426L25.636 166.956L25.6828 168.806H17.8022V155.979H20.1356Z" fill="#8E1838"/>
<path d="M143.287 195.04C141.051 191.126 146.621 188.366 148.83 192.125C147.034 191.88 145.62 191.705 143.89 192.444C144.144 196.338 148.175 194.037 150.579 193.882C150.524 195.685 147.945 196.171 146.508 196.373C145.519 196.513 140.961 196.727 140.361 196.362C138.822 194.294 139.453 191.495 139.165 189.105C138.947 187.317 137.556 186.388 139.344 184.844C140.493 187.799 140.003 191.145 140.423 194.259C140.751 195.378 142.375 195.013 143.283 195.044L143.287 195.04Z" fill="#8E1838"/>
<path d="M11.7838 127.88C11.5228 127.561 10.5995 126.519 10.545 126.321C10.284 125.4 12.4343 121.944 13.2874 121.859C14.3548 121.746 16.8751 123.981 17.0972 125.073C17.3192 126.166 15.0443 129.252 14.1132 130.01C13.7666 130.068 12.0837 128.249 11.7877 127.88H11.7838Z" fill="#8E1838"/>
<path d="M163.418 185.715C163.508 186.582 164.268 187.184 165 186.609C165.413 186.283 164.817 185.494 165.756 185.715C166.254 186.998 165.744 189.454 164.158 189.532C162.974 189.59 162.737 188.961 161.416 190.123C162.308 192.323 161.864 194.29 161.377 196.502H160.508C160.614 194.539 160.508 192.805 159.776 190.966C158.989 188.996 157.743 188.564 159.052 186.011C160.096 186.112 160.364 187.371 161.529 187.437C162.476 187.491 162.803 186.734 162.842 185.902L163.422 185.719L163.418 185.715Z" fill="#8E1838"/>
<path d="M231.417 181.342L231.133 182.672L229.961 182.508C229.879 183.091 229.902 182.994 230.331 183.173C230.946 183.43 231.858 182.745 231.71 183.531C231.562 184.316 230.895 184.428 230.249 184.557C230.856 187.643 231.71 191.173 231.429 194.325C231.347 195.227 231.098 197.038 229.961 197.081C229.871 195.608 230.081 194.026 229.957 192.568C229.832 191.11 229.01 188.619 229.068 187.32C229.111 186.318 229.883 185.773 229.961 184.841C227.549 185.346 228.796 185.066 229.002 184.071C229.065 183.775 228.796 183.371 228.854 183.01C229.033 181.921 230.362 181.171 231.421 181.346L231.417 181.342Z" fill="#8E1838"/>
<path d="M62.452 197.081C63.3791 193.143 60.0601 188.005 62.7402 184.841C63.1648 187.744 64.1737 191.106 63.9244 194.037C63.8933 194.418 63.1765 197.917 62.4559 197.085L62.452 197.081Z" fill="#8E1838"/>
<path d="M98.3135 185.75L98.0564 187.46L100.086 188.063C100.347 188.44 99.3886 190.123 98.8394 190.057C98.5394 190.022 98.1888 189.571 97.8655 189.548C97.4175 189.513 96.6112 190.477 95.4542 189.478C95.2439 189.186 95.8866 187.282 96.5956 187.46L95.9918 187.006L96.6034 185.132L98.3135 185.75ZM98.0525 187.756L96.8916 187.46V188.043H98.0564V187.76L98.0525 187.756Z" fill="#8E1838"/>
<path d="M219.723 184.281L219.166 186.294C219.875 185.89 220.635 186.318 221.231 186.761L220.619 188.626L218.749 188.024L218.161 188.638C216.996 188.277 216.303 187.674 217.148 186.461C217.464 186.011 218.083 186.139 217.997 185.715L217.398 185.532C217.526 183.566 218.107 183.418 219.727 184.281H219.723Z" fill="#8E1838"/>
<path d="M173.636 195.336L171.042 193.68L171.599 190.959C174.4 191.515 174.419 192.891 173.636 195.332V195.336Z" fill="#8E1838"/>
<path d="M30.0339 183.41C30.3183 183.81 29.4613 185.334 29.0016 185.404C27.5642 184.269 27.0188 185.952 25.4061 184.825L26.4306 182.804C27.8758 183.978 28.4329 182.252 30.0339 183.41Z" fill="#8E1838"/>
<path d="M49.3203 187.748L50.2202 185.727C51.3693 186.042 52.6198 186.294 52.016 187.67C51.2252 189.474 50.5746 187.946 49.3164 187.748H49.3203Z" fill="#8E1838"/>
<path d="M83.1641 187.46L81.1501 186.399L81.7189 184.549L83.7328 185.61L83.1641 187.46Z" fill="#8E1838"/>
<path d="M113.806 190.667L111.792 189.606L112.36 187.756L114.374 188.817L113.806 190.667Z" fill="#8E1838"/>
<path d="M190.85 190.667L188.836 189.606L189.401 187.756L191.419 188.817L190.85 190.667Z" fill="#8E1838"/>
</g>
<defs>
<clipPath id="clip0_6_17">
<rect width="258" height="200" fill="white"/>
</clipPath>
</defs>
</svg>
