<svg width="375" height="185" viewBox="0 0 375 185" fill="none" xmlns="http://www.w3.org/2000/svg">
<g clip-path="url(#clip0_246_6316)">
<path d="M241.59 181.246L253.629 162.528C254.447 160.082 253.021 158.403 253.591 155.605C254.485 151.128 258.213 150.693 259.507 147.5C262.284 140.639 261.694 127.664 268.218 122.42C271.261 119.994 271.927 120.139 275.18 116.885C276.016 116.035 277.956 115.621 278.375 114.833C278.927 113.817 278.679 111.123 279.117 109.402C280.315 104.739 285.298 98.8104 288.494 95.4318C289.787 94.0637 295.702 89.4621 296.159 88.5294C296.92 86.9333 295.132 83.9899 297.053 80.5491C299.221 76.673 303.12 76.5693 305.022 74.7245C307.039 72.7761 307.001 65.8115 311.585 66.309L311.813 13.6393C312.745 6.6332 318.451 -0.227754 325.26 -0.0412021C327.866 0.0209818 335.55 3.91784 337.871 5.61753C341.865 8.5609 343.615 13.1211 344.014 18.2823C345.27 34.0563 342.968 51.6958 344.071 67.677C352.44 68.7549 357.557 71.5739 362.997 78.5178C365.45 81.627 366.972 85.5031 369.064 88.5086C373.629 95.0587 376.006 96.0329 379.335 104.946C381.313 110.252 382.721 120.098 384.585 123.953C384.946 124.7 387.799 126.648 388.902 128.41C390.861 131.498 391.831 137.199 393.81 139.665C394.78 140.867 396.682 141.593 397.899 142.816C403.681 148.64 401.912 154.237 405.811 159.771C413.477 170.633 422.169 166.466 431.527 171.835C435.75 174.26 437.861 177.971 441.322 181.204H460.019V185.35H134.209L140.5 181.204H241.571L241.59 181.246ZM340.8 66.4334V18.3445C340.8 13.8258 336.653 7.31722 332.165 6.96485C328.494 6.67466 322.407 11.8359 322.407 15.5877V66.4334H340.8Z" fill="white" fill-opacity="0.05"/>
<path d="M-14.235 144.599L-11.7623 144.682L-11.7053 146.692C-5.16225 137.634 0.372673 127.125 5.85054 117.113C6.80156 115.372 8.53242 113.548 9.38833 111.206C9.7307 110.232 9.10303 108.988 9.27421 108.739C9.50246 108.408 14.8852 106.128 16.1025 105.423C37.7477 92.924 57.3767 75.8648 66.944 50.556C69.5307 50.3073 69.778 53.3957 70.9763 55.0747C84.1955 73.5433 99.1645 90.8512 118.603 101.671C120.677 97.1939 125.127 91.4523 126.706 86.9958C127.143 85.7314 126.516 84.612 126.573 84.5084C126.82 84.1353 132.888 81.4199 134.143 80.653C151.432 70.1232 167.98 55.8831 175.341 35.1137L176.939 34.6162C189.131 55.7795 206.896 72.4862 227.628 83.0782L244.784 114.896L248.893 114.854V123.85L245.754 123.809L245.127 120.699L228.617 92.0327L228.655 118.627C229.834 121.238 234.114 134.442 235.598 135.271C236.339 135.686 237.29 135.541 238.089 135.644V144.619L235.674 144.516L228.617 127.332L228.142 142.36L207.676 169.908L206.858 170.094C204.404 169.845 196.435 158.984 193.315 156.497C180.439 146.298 172.469 159.689 164.29 168.871C163.739 169.431 163.092 169.576 162.369 169.576C158.489 169.617 144.775 159.44 140.153 157.782L128.437 141.158C127.657 151.315 134.599 160.083 137.376 169.452L140.477 169.514V185.001L137.985 184.959C137.833 182.223 136.54 174.364 135.512 171.815C133.629 167.151 131.784 161.803 129.065 157.761V176.789C121.475 188.293 113.03 198.761 103.92 208.855L101.162 208.607C95.9501 201.849 86.7632 187.817 77.9948 187.485C69.2264 187.153 55.3035 199.963 52.2602 208.855C51.062 209.291 49.8637 208.855 48.7034 208.42C45.3749 207.197 26.7729 197.206 24.2623 195.154C22.4743 193.662 19.2789 186.822 17.6432 186.262L-31.4104 185.827L-32 181.287L14.9233 181.971C15.2846 181.681 9.84482 174.613 9.84482 174.032V163.316C6.47821 168.187 2.33177 174.074 0.924263 179.857L-1.5674 179.898V169.514C-0.464222 169.182 0.981325 170.239 1.85626 170.053C2.57904 169.908 9.84482 157.512 9.84482 156.725V116.948L-11.7813 155.585L-14.235 155.667V144.599ZM131.575 85.8143L142.664 101.713C153.068 92.5509 161.38 80.5079 166.744 67.1176C168.532 62.6611 170.681 57.4377 170.871 52.6081C160.201 66.6616 147.153 78.746 131.575 85.8143ZM185.992 53.4372C185.612 53.1885 184.3 52.9605 184.205 53.6237C188.161 60.1945 192.364 66.8067 197.195 72.652C201.608 77.9998 209.996 87.1201 215.151 91.2864C215.854 91.8461 216.825 93.0069 217.814 92.4265C218.137 92.2399 221.77 86.975 222.264 86.1459C222.683 85.4412 223.234 85.4412 222.588 84.384C222.169 83.7 211.632 77.8133 209.616 76.383C204.024 72.4447 196.511 66.2885 191.794 61.2309C190.729 60.0909 186.468 53.7067 185.992 53.4165V53.4372ZM175.322 56.0696C173.934 55.8002 173.819 56.7329 173.439 57.8108C168.418 71.5327 165.279 80.7566 156.302 92.3643C153.639 95.8051 148.713 99.702 146.792 102.749C146.43 103.329 145.917 103.433 146.164 104.469L159.954 111.31C161.894 111.621 163.016 109.092 163.929 107.62C169.274 98.9765 172.716 81.9381 173.972 71.5534C174.599 66.4336 174.295 61.0858 175.322 56.0904V56.0696ZM182.284 56.7537L181.009 57.106C184.946 76.5696 190.367 97.8779 205.355 110.667L215.227 96.5099C203.453 84.0731 190.405 72.5898 182.264 56.7329L182.284 56.7537ZM200.695 112.077C191.242 101.215 185.536 88.8198 181.504 74.559C180.591 71.3462 180.191 67.698 179.221 64.6096C178.936 63.6975 179.031 62.4953 177.871 62.288C177.186 75.699 174.866 91.2657 169.73 103.557C168.38 106.791 166.478 109.548 165.184 112.781L200.695 112.077ZM63.7295 65.7496L53.915 79.5959C42.9403 92.6338 29.3027 102.397 14.9233 110.418L15.5319 112.47L27.0392 129.343C27.6669 129.82 29.2076 128.493 29.8162 128.016C44.9184 115.973 56.1404 92.0119 62.0367 73.2324C62.7785 70.828 63.1019 68.1955 63.7486 65.7703L63.7295 65.7496ZM76.4351 69.1904C77.9568 75.2637 82.3505 81.8552 85.9453 86.8092C94.7898 98.9973 105.898 108.843 116.055 119.663C116.587 119.663 122.179 111.558 122.769 110.377C123.111 109.693 123.625 109.506 123.073 108.574C122.674 107.91 113.639 103.06 111.984 101.961C107.115 98.6863 101.922 94.7273 97.4146 90.8719C89.7684 84.3426 83.1493 76.7562 76.4351 69.149V69.1904ZM71.9844 69.8952C76.5112 95.2455 82.845 123.456 102.094 140.329L114.343 122.814C101.865 110.19 88.7603 98.023 79.06 82.5807L71.9654 69.9159L71.9844 69.8952ZM97.3385 141.137C86.9534 130.172 80.2012 116.45 75.6173 101.547L68.827 74.0408C65.7267 97.3805 62.3981 121.093 52.964 142.505L97.3385 141.116V141.137ZM30.7672 132.141L49.1409 140.847C54.8851 131.312 57.8903 118.979 60.1157 107.807C61.5041 100.842 63.1209 92.3021 63.5584 85.2546C63.6344 83.928 64.0529 83.2855 62.7595 82.3527C55.8171 101.671 45.2227 118.647 30.7482 132.141H30.7672ZM224.775 109.32V88.5711L220.286 95.1004C218.841 98.0023 221.504 102.666 222.759 105.651C223.196 106.708 223.805 108.967 224.775 109.34V109.32ZM130.948 91.3279V117.611L139.183 103.412L130.948 91.3279ZM127.771 92.0327C126.25 91.6596 126.744 92.3228 126.364 92.9447C125.508 94.292 121.418 101.796 121.437 102.79C121.475 104.449 126.307 106.273 127.79 106.563V92.0327H127.771ZM216.539 151.854V101.008L207.371 114.17L206.991 116.512L207.676 163.254L216.539 151.833V151.854ZM219.716 105.174V147.376L224.452 141.116C225.213 133.281 224.642 125.239 224.756 117.321L219.735 105.174H219.716ZM160.106 164.663V115.891C154.894 113.051 149.017 109.175 143.672 106.832C143.159 106.604 142.322 106.169 142.341 106.895L142.968 155.191L160.106 164.643V164.663ZM139.183 150.133V110.004L131.233 123.125C130.586 125.84 130.567 136.349 131.518 138.753L139.164 150.112L139.183 150.133ZM125.241 139.748V116.575C125.241 116.201 124.309 115.061 124.595 114.149C124.233 113.735 118.375 122.026 118.851 123.498L125.241 139.728V139.748ZM13.0212 115.538V150.817C17.3388 144.785 21.0478 138.028 24.3003 131.208C24.2242 130.276 15.7982 118.295 14.4668 116.409C14.0483 115.828 14.4858 115.144 13.0212 115.538ZM163.91 116.243V140.453C169.388 136.618 180.724 123.767 181.047 116.595C181.123 115.124 181.028 115.704 180.096 115.538C175.817 114.813 168.684 117.362 163.91 116.243ZM203.853 115.538H186.107C188.56 122.71 192.707 130.504 198.032 135.561C199.554 137.012 201.951 138.961 203.872 139.748V115.538H203.853ZM115.731 190.594V127.312L104.319 143.562V203.404L115.731 190.615V190.594ZM118.908 186.096C120.753 183.858 124.785 178.883 125.222 176.022C126.459 167.98 124.347 156.766 125.279 148.351L118.908 132.825V186.096ZM27.6098 134.214V193.019L48.5323 204.088L49.217 146.298L48.7795 145.221L27.6098 134.235V134.214ZM24.4334 188.169V137.676C21.4282 142.816 13.6299 152.994 13.0212 158.777C11.5947 172.374 15.3227 177.556 22.9879 187.298C23.3873 187.796 22.9499 188.604 24.4334 188.169ZM71.0334 145.988C64.8327 146.361 58.537 145.718 52.3363 145.988V176.416C58.8984 172.146 64.3953 166.156 68.5797 159.212C70.0823 156.725 74.1717 148.91 74.5331 146.319C74.8565 143.915 71.604 145.946 71.0334 145.988ZM101.143 145.283H78.9458C83.8151 157.118 90.1869 168.933 101.143 175.027V145.283ZM163.91 163.275C167.714 159.025 170.015 157.554 167.2 151.729C166.592 150.465 165.431 147.895 163.91 148.06V163.275ZM204.499 162.57L203.244 148.744C200.277 155.336 198.755 155.626 203.054 161.699C203.453 162.28 203.054 162.964 204.499 162.57ZM52.3363 202.015C53.858 200.772 58.556 195.051 58.6321 193.392C58.7082 191.506 55.3986 184.168 53.915 183.339C52.4695 183.049 53.0401 184.023 52.964 185.06C52.5836 190.615 52.7738 196.439 52.3363 202.015ZM101.143 183.339C98.3276 183.837 95.3985 189.889 95.4175 192.688C95.4365 195.486 99.4308 199.88 101.143 202.015V183.339Z" fill="white" fill-opacity="0.05"/>
</g>
<defs>
<clipPath id="clip0_246_6316">
<rect width="492" height="209" fill="white" transform="translate(-32)"/>
</clipPath>
</defs>
</svg>
