<svg width="27" height="24" viewBox="0 0 27 24" fill="none" xmlns="http://www.w3.org/2000/svg">
<path d="M23.8837 10.8473V6.95971C24.2504 7.00127 25.194 6.77027 25.1796 7.39196V10.4151C25.1954 11.0359 24.2477 10.8075 23.8837 10.8473ZM20.8606 20.3498H5.30967C4.44167 20.538 5.04717 15.9407 4.87786 15.5986H21.2915C21.1227 15.9613 21.7277 20.5235 20.8597 20.3498M19.9961 22.5098C20.0425 23.2745 18.2207 22.83 17.8362 22.942C17.1274 22.9713 17.4866 21.5932 17.4044 21.2139H19.9961V22.5098ZM8.76548 22.5098C8.81186 23.2745 6.99011 22.83 6.60554 22.942C5.89679 22.9713 6.25598 21.5932 6.17373 21.2139H8.76548V22.5098ZM13.0845 12.1432C13.9752 12.4678 13.3339 5.93639 13.5167 5.66383H21.2915V14.735H4.87829V5.66383H12.6531C12.8386 5.97008 12.1907 12.4429 13.0845 12.1432ZM7.03779 1.77664H8.33367C8.46404 2.16777 7.98804 3.97814 8.76592 3.93614H17.4048C18.1722 3.98296 17.7224 2.16121 17.8366 1.77664C20.0294 1.51983 21.5799 2.39921 21.292 4.79977H4.87829C4.67048 3.36127 5.40548 1.75739 7.03779 1.77664ZM10.8716 0.927456C12.9174 0.936206 14.9666 0.962018 17.0115 0.889831C16.9682 1.47171 16.686 2.30602 16.9725 2.82664V3.07252C16.1242 3.39189 11.4495 3.07252 9.19773 3.07252V2.02864C9.29573 1.65371 9.26773 1.14183 9.32636 0.846956C9.81811 0.971643 10.3847 0.919143 10.8716 0.927456ZM2.28654 10.8473C1.92036 10.8036 0.976231 11.0385 0.990669 10.4155V7.39196C0.974919 6.77158 1.92254 6.99952 2.28654 6.95971V10.8473ZM24.7478 6.09608H24.316C24.3921 4.17108 24.4726 2.78027 22.0287 3.07252C21.656 1.82477 20.4997 0.912581 19.1325 0.912581C18.8065 0.998768 18.3117 1.02939 17.7001 1.02721C17.6927 0.938831 17.6791 0.850893 17.669 0.762518C17.8716 0.561268 17.7933 0.148268 17.4219 0.129456C15.9799 0.0550807 14.526 0.111081 13.0819 0.118518C11.8337 0.171018 10.582 0.0550807 9.34298 0.245393C9.30754 0.0353932 9.01617 -0.0949817 8.85911 0.0852683C8.69023 0.277768 8.63948 0.542456 8.61717 0.804518C6.25379 0.978206 4.37954 1.55702 4.14154 3.07252C1.69504 2.77939 1.77904 4.17633 1.85473 6.09564C-0.573394 5.69489 0.260044 9.07108 0.126606 10.4155C-0.112706 11.7534 2.84786 12.2618 3.15061 11.2791C2.97561 10.9344 3.59511 5.89352 2.71836 6.09608C2.86054 4.86058 2.10673 3.67627 4.01423 3.93614C4.55542 4.94414 2.65011 21.9126 5.31011 21.2143C5.05548 23.8595 6.04511 23.912 8.33367 23.8056C9.73148 23.8284 9.68686 22.2044 9.62954 21.2143H16.5407C16.2861 23.8595 17.2757 23.912 19.5643 23.8056C20.9621 23.8284 20.9175 22.2044 20.8602 21.2143C23.5092 21.9734 21.6214 4.86321 22.156 3.93614C24.0644 3.67452 23.3097 4.86758 23.4519 6.09608C22.5769 5.87514 23.1934 10.9545 23.0201 11.2791C22.9904 11.9892 24.3685 11.6283 24.7478 11.7114C26.647 12.1091 26.6448 5.72858 24.7478 6.09608Z" fill="#8E1838"/>
<path d="M19.5647 18.6225H16.4397L17.2171 17.3266H19.5643L19.5647 18.6225ZM19.5647 16.4625C18.9623 16.5763 16.8015 16.1326 16.476 16.8816C15.9938 17.5921 14.8244 19.3233 16.4397 19.4861C17.2193 19.2783 20.4979 20.1174 20.4283 18.6225C20.4034 17.9207 20.6747 16.4415 19.5647 16.4625ZM6.60597 18.6225V17.3266H8.95316L9.73278 18.6225H6.60597ZM9.69341 16.8812C9.23491 16.2075 5.63253 16.0443 5.74191 17.3261C5.76903 18.0283 5.49472 19.5075 6.60597 19.4861C7.4591 19.2993 11.3747 20.1948 10.4713 18.178L9.69341 16.8812ZM15.3621 9.59858C16.0376 9.0399 16.6851 8.44621 17.3921 7.9269C17.6493 7.73746 17.9486 7.54758 18.0785 7.24833C18.2085 6.56408 17.2591 7.06677 17.0185 7.28683C16.2472 7.85996 15.5148 8.49871 14.9447 9.27658C14.8664 9.38158 14.9172 9.54783 15.013 9.61958C15.1254 9.70358 15.2575 9.68608 15.3621 9.59902M16.3382 10.548C16.1592 10.7702 14.9718 11.7581 15.6907 11.8119C16.1063 11.6566 16.3981 11.2781 16.7433 11.0056L17.7854 10.0527C18.2842 9.59027 18.8074 9.15058 19.2712 8.65183C19.4322 8.47377 19.5975 8.29046 19.6212 8.04283C19.4453 6.9609 16.759 10.2614 16.3382 10.548ZM18.394 11.1648C18.0505 11.1976 17.8453 11.5546 17.624 11.7848L17.1335 12.3745C17.0644 12.4576 17.046 12.5867 17.1335 12.6668C17.4113 12.8698 17.7176 12.3706 17.9604 12.2498C18.1953 12.0547 18.4745 11.8762 18.6298 11.6093C18.7304 11.4216 18.6232 11.164 18.3935 11.1653M9.45628 7.15865C9.57266 6.44115 7.9771 7.85865 7.79028 7.9969C7.32243 8.37086 6.86237 8.75449 6.41041 9.14752C6.25247 9.28358 6.46291 9.56227 6.63485 9.43933C7.58991 8.70521 8.6666 8.07127 9.45672 7.15865M15.7532 1.81896C15.4045 1.51971 14.8813 1.64615 14.4556 1.60415C13.091 1.64702 11.6915 1.47377 10.3483 1.74721C9.67591 2.29102 12.7962 2.2219 13.0832 2.27702C13.5075 2.22802 16.2839 2.66858 15.7532 1.81896ZM10.1169 10.5108C9.71878 10.5589 9.4891 10.9824 9.20516 11.2287C8.99822 11.4396 8.81403 11.671 8.62722 11.8994C8.43253 12.0945 8.68585 12.4301 8.92341 12.2835C9.14916 12.1317 9.38235 11.9843 9.59453 11.8128C9.89641 11.4991 10.5299 11.276 10.4656 10.7628C10.4284 10.6101 10.2713 10.5051 10.1169 10.5108Z" fill="#8E1838"/>
<path d="M12.9283 1.77148V1.77236C12.9362 1.79292 12.93 1.79948 12.9283 1.77236M13.0788 2.08036L13.0823 2.08255C13.046 2.04317 13.0604 2.06767 13.0788 2.08036ZM15.1941 2.41111C15.1954 2.40848 15.1972 2.4063 15.1967 2.40236L15.1941 2.41111ZM25.2745 3.76736C24.9608 4.06355 24.6979 4.55705 24.6165 4.98011C24.6152 5.19798 24.8528 5.3183 25.0365 5.22073C25.257 5.07767 25.3865 4.83661 25.5327 4.62442C25.6451 4.45248 25.7777 4.27661 25.7952 4.06661C25.824 3.78311 25.5051 3.60417 25.2745 3.76736ZM26.0721 5.02517C25.8551 4.92673 25.6272 5.10086 25.4587 5.22555C25.3787 5.29555 25.2601 5.3393 25.2273 5.4478C25.1875 5.58561 25.3292 5.74092 25.4714 5.69192C25.7282 5.60661 26.4435 5.36905 26.0721 5.02517ZM0.65816 4.89961C0.638286 4.88402 0.618306 4.86856 0.598222 4.85323C0.74041 4.95386 0.898785 5.09473 0.994598 5.21767C1.12147 5.42898 1.47585 5.27892 1.39885 5.04048C1.22953 4.60298 0.663847 3.87673 0.137097 4.07886C0.0851977 4.11167 0.0448544 4.15989 0.0217126 4.21676C-0.00142914 4.27363 -0.00621144 4.33632 0.00803492 4.39605C0.0889724 4.67736 0.466972 4.71017 0.65816 4.89917M1.10747 5.34236C0.870347 5.32486 0.632347 5.34411 0.394347 5.34455C0.151972 5.35198 0.15241 5.70417 0.394347 5.71598C0.718972 5.73436 1.05235 5.82886 1.36822 5.71598C1.51785 5.67967 1.51653 5.45523 1.36822 5.41542C1.28335 5.38742 1.1976 5.35111 1.10747 5.34236Z" fill="#0E0E0E"/>
</svg>
